<svg xmlns="http://www.w3.org/2000/svg" width="26.373" height="31.491" viewBox="0 0 26.373 31.491"><path d="M1098.393,423l-8.92-9.3a3.206,3.206,0,0,1-1.319-2.395c0-.008.013-.26.013-.267a2.576,2.576,0,0,1,2.3-2.235c1.915-.016,3.172,1.722,3.875,2.5.39.489.784.622,1.173.487a1.016,1.016,0,0,0,.428-.3l2.3-2.615a.868.868,0,0,0-.206-1.151c-1.05-.937-3.635-3.67-7.252-3.679-4.638-.011-7.285,2.678-7.91,5.7a7.076,7.076,0,0,0-.151,1.419v.026a7.642,7.642,0,0,0,1.916,5.046l5.695,6.226,5,5.2A8.293,8.293,0,0,0,1098.393,423Z" transform="translate(-1078.899 -404.044)" fill="#ff7a1c"/><path d="M1085.8,445.279c-3.757-.009-6.889-2.845-6.881-6.348,0-.064,0-.129.006-.192,0-.016,0-.033,0-.049v-.006a4.329,4.329,0,0,1,.8-1.875.785.785,0,0,0-.084-.93l-2.765-3.083a.856.856,0,0,0-1.336.06,10.117,10.117,0,0,0-2.015,6.349v.081c0,.031,0,.063,0,.093.053,6.345,5.485,11.428,12.27,11.428a12.634,12.634,0,0,0,2.9-.359l.008,0a12.486,12.486,0,0,0,2.3-.756l.044-.018a8.48,8.48,0,0,0,2.2-1.2,4.925,4.925,0,0,0,.525-.464c-2.61-2.731-3.643-3.895-3.81-4.073A7.12,7.12,0,0,1,1085.8,445.279Z" transform="translate(-1073.531 -420.309)" fill="#ff6200"/><path d="M1123.6,465.169a6.993,6.993,0,0,0-1.254-2.645c-.1-.123-.156-.17-.169-.184a16.751,16.751,0,0,0,3.487-4.748,6.411,6.411,0,0,1,1.039,2.088C1127.612,463.878,1124.2,468.086,1123.6,465.169Z" transform="translate(-1101.934 -434.647)" fill="#ff7a1c"/><path d="M1117.554,434.474a6.1,6.1,0,0,1,.32,3.575l4.238,3.993a10.479,10.479,0,0,0,.917-3.765,11.807,11.807,0,0,0-.343-2.682.573.573,0,0,1,.534-.741l1.116,0c.331,0,.41-.269.411-.574l.007-3.306a.564.564,0,0,0-.556-.575l-7.539-.018a.564.564,0,0,0-.559.573l0,1.264a1.56,1.56,0,0,0,.455,1.194A6.323,6.323,0,0,1,1117.554,434.474Z" transform="translate(-1098.38 -419.096)" fill="#ff6200"/><path d="M1120.064,452.825a17.845,17.845,0,0,1-3.231,4.189c-2.61-2.731-3.811-4.073-3.811-4.073a8.3,8.3,0,0,0,3.059-4.669s4.242,3.982,4.238,3.993C1120.3,452.342,1120.175,452.588,1120.064,452.825Z" transform="translate(-1096.588 -429.321)" fill="#ff5000"/></svg>